<?xml version="1.0" encoding="UTF-8"?>
<svg width="512px" height="512px" viewBox="0 0 512 512" version="1.1" xmlns="http://www.w3.org/2000/svg" xmlns:xlink="http://www.w3.org/1999/xlink">
    <!-- Generator: Sketch 52.6 (67491) - http://www.bohemiancoding.com/sketch -->
    <title>Untitled</title>
    <desc>Created with Sketch.</desc>
    <g id="Page-1" stroke="none" stroke-width="1" fill="none" fill-rule="evenodd">
        <g id="weight">
            <rect id="Rectangle" fill="#EF4B4B" transform="translate(256.000000, 256.000000) rotate(-360.000000) translate(-256.000000, -256.000000) " x="0" y="0" width="512" height="512"></rect>
            <path d="M256.305854,295.455197 C310.359817,295.455197 354.179211,251.635803 354.179211,197.58184 C354.179211,143.527877 310.359817,99.7084827 256.305854,99.7084827 C202.251892,99.7084827 158.432497,143.527877 158.432497,197.58184 C158.432497,251.635803 202.251892,295.455197 256.305854,295.455197 Z M256.134576,202.475508 L276.663513,154.578734 C278.039237,151.36179 281.026678,149.123151 284.500495,148.706091 C287.974313,148.289031 291.406751,149.756912 293.504844,152.556796 C295.602937,155.35668 296.047935,159.063199 294.67221,162.280143 L274.131039,210.195269 C282.061373,218.641796 282.980635,231.492447 276.33333,240.981775 C269.686025,250.471103 257.294556,253.997543 246.646895,249.430124 C235.999233,244.862704 230.014508,233.453614 232.309196,222.097187 C234.603883,210.740761 244.548878,202.55044 256.134576,202.475508 Z" id="Shape" fill-opacity="0.4" fill="#FFFFFF" fill-rule="nonzero"></path>
            <path d="M412.903226,178.007168 L412.903226,373.753883 C412.879627,395.365685 395.365685,412.879627 373.753883,412.903226 L138.857826,412.903226 C117.246023,412.879627 99.7320819,395.365685 99.7084827,373.753883 L99.7084827,178.007168 C99.7320819,156.395366 117.246023,138.881425 138.857826,138.857826 L154.762246,138.857826 C144.356987,156.679943 138.868652,176.944564 138.857826,197.58184 C138.857826,262.343417 191.544277,315.029869 256.305854,315.029869 C321.067431,315.029869 373.753883,262.343417 373.753883,197.58184 C373.743056,176.944564 368.254721,156.679943 357.849462,138.857826 L373.753883,138.857826 C395.365685,138.881425 412.879627,156.395366 412.903226,178.007168 Z M256.305854,251.412186 C266.060069,251.407185 274.879558,245.609211 278.751418,236.656366 C282.623277,227.703521 280.807802,217.306216 274.131039,210.195269 L294.67221,162.280143 C296.047935,159.063199 295.602937,155.35668 293.504844,152.556796 C291.406751,149.756912 287.974313,148.289031 284.500495,148.706091 C281.026678,149.123151 278.039237,151.36179 276.663513,154.578734 L256.134576,202.475508 C242.621085,202.522805 231.704579,213.515996 231.751876,227.029486 C231.799173,240.542977 242.792364,251.459484 256.305854,251.412186 Z" id="Shape" fill="#FFFFFF" fill-rule="nonzero"></path>
        </g>
    </g>
</svg>